<?xml version="1.0" encoding="UTF-8"?>
<!DOCTYPE svg PUBLIC "-//W3C//DTD SVG 1.1//EN" "http://www.w3.org/Graphics/SVG/1.1/DTD/svg11.dtd">
<svg xmlns="http://www.w3.org/2000/svg" version="1.1" width="500px" height="500px" style="shape-rendering:geometricPrecision; text-rendering:geometricPrecision; image-rendering:optimizeQuality; fill-rule:evenodd; clip-rule:evenodd" xmlns:xlink="http://www.w3.org/1999/xlink">
<g><path style="opacity:1" fill="#fefefe" d="M -0.5,-0.5 C 166.167,-0.5 332.833,-0.5 499.5,-0.5C 499.5,166.167 499.5,332.833 499.5,499.5C 332.833,499.5 166.167,499.5 -0.5,499.5C -0.5,332.833 -0.5,166.167 -0.5,-0.5 Z"/></g>
<g><path style="opacity:1" fill="#ccdd0d" d="M 407.5,39.5 C 427.564,37.1052 441.398,45.1052 449,63.5C 452.029,92.1336 439.196,106.634 410.5,107C 404.572,105.363 398.905,103.197 393.5,100.5C 388.487,101.101 383.487,101.768 378.5,102.5C 377.833,102.167 377.167,101.833 376.5,101.5C 379.182,96.1356 381.849,90.8022 384.5,85.5C 378.866,63.4352 386.532,48.1018 407.5,39.5 Z"/></g>
<g><path style="opacity:1" fill="#e78406" d="M 410.5,52.5 C 426.081,50.9354 435.081,57.7687 437.5,73C 435.075,88.3857 426.075,95.3857 410.5,94C 397.597,88.6956 392.764,79.1956 396,65.5C 399.162,59.1641 403.996,54.8308 410.5,52.5 Z"/></g>
<g><path style="opacity:1" fill="#eb972f" d="M 277.5,78.5 C 258.12,78.1913 238.787,78.5247 219.5,79.5C 219.611,78.8826 219.944,78.3826 220.5,78C 239.671,77.1711 258.671,77.3377 277.5,78.5 Z"/></g>
<g><path style="opacity:1" fill="#e8840a" d="M 277.5,78.5 C 280.247,79.9728 281.081,82.3061 280,85.5C 279.184,86.8228 278.017,87.4894 276.5,87.5C 269.5,87.5 262.5,87.5 255.5,87.5C 255.5,106.167 255.5,124.833 255.5,143.5C 254.864,146.795 252.864,148.128 249.5,147.5C 246.136,148.128 244.136,146.795 243.5,143.5C 243.5,124.833 243.5,106.167 243.5,87.5C 236.167,87.5 228.833,87.5 221.5,87.5C 218.432,85.5056 217.765,82.8389 219.5,79.5C 238.787,78.5247 258.12,78.1913 277.5,78.5 Z"/></g>
<g><path style="opacity:1" fill="#cddf19" d="M 340.5,79.5 C 342.857,79.3367 345.19,79.5034 347.5,80C 348.667,80.5 349.5,81.3333 350,82.5C 350.07,90.1863 349.57,97.8529 348.5,105.5C 348.833,106.167 349.167,106.833 349.5,107.5C 360.459,99.1257 370.626,100.126 380,110.5C 383.904,119.184 384.571,128.184 382,137.5C 374.901,152.635 364.068,156.135 349.5,148C 348.213,146.59 347.046,145.09 346,143.5C 343.868,150.852 339.868,152.186 334,147.5C 334.056,126.434 335.389,105.434 338,84.5C 338.366,82.5483 339.199,80.8816 340.5,79.5 Z"/></g>
<g><path style="opacity:1" fill="#f5ca95" d="M 276.5,87.5 C 270.021,88.4907 263.354,88.824 256.5,88.5C 256.83,107.008 256.497,125.341 255.5,143.5C 255.5,124.833 255.5,106.167 255.5,87.5C 262.5,87.5 269.5,87.5 276.5,87.5 Z"/></g>
<g><path style="opacity:1" fill="#f4cb97" d="M 221.5,87.5 C 228.833,87.5 236.167,87.5 243.5,87.5C 243.5,106.167 243.5,124.833 243.5,143.5C 242.503,125.341 242.17,107.008 242.5,88.5C 235.313,88.8245 228.313,88.4912 221.5,87.5 Z"/></g>
<g><path style="opacity:1" fill="#e88715" d="M 321.5,78.5 C 324.862,78.0695 327.695,79.0695 330,81.5C 329.679,102.829 329.013,124.162 328,145.5C 325.947,149.292 322.781,150.458 318.5,149C 316.683,147.2 315.516,145.034 315,142.5C 312.9,145.467 310.066,147.3 306.5,148C 291.668,150.51 282.835,144.343 280,129.5C 277.861,116.462 282.361,106.629 293.5,100C 302.723,97.243 310.557,99.4097 317,106.5C 317.333,98.5 317.667,90.5 318,82.5C 319.376,81.2949 320.542,79.9616 321.5,78.5 Z"/></g>
<g><path style="opacity:1" fill="#fefcf9" d="M 299.5,108.5 C 313.991,108.078 319.491,115.078 316,129.5C 312.917,138.958 306.75,141.791 297.5,138C 295.106,136.048 293.606,133.548 293,130.5C 290.718,121.728 292.884,114.394 299.5,108.5 Z"/></g>
<g><path style="opacity:1" fill="#fdfef9" d="M 354.5,111.5 C 368.339,110.509 373.839,116.843 371,130.5C 368.23,141.527 361.73,144.694 351.5,140C 349.683,138.2 348.516,136.034 348,133.5C 347.333,128.833 347.333,124.167 348,119.5C 349.305,116.039 351.471,113.372 354.5,111.5 Z"/></g>
<g><path style="opacity:1" fill="#829f68" d="M 125.5,166.5 C 127.527,166.338 129.527,166.505 131.5,167C 169.246,206.636 196.079,252.803 212,305.5C 223.579,347.049 229.913,389.382 231,432.5C 223.618,406.685 215.618,381.018 207,355.5C 184.212,298.064 151.045,247.564 107.5,204C 98.7902,196.288 89.7902,188.955 80.5,182C 95.3159,176.053 110.316,170.886 125.5,166.5 Z"/></g>
<g><path style="opacity:1" fill="#476f70" d="M 77.5,200.5 C 78.8734,200.343 80.2068,200.51 81.5,201C 107.593,223.086 130.093,248.252 149,276.5C 169.64,307.447 186.307,340.447 199,375.5C 201.06,382.154 202.727,388.82 204,395.5C 169.773,330.6 123.273,276.1 64.5,232C 55.3348,225.916 46.0015,220.083 36.5,214.5C 39.6732,212.717 43.0065,211.217 46.5,210C 56.9365,206.76 67.2698,203.593 77.5,200.5 Z"/></g>
<g><path style="opacity:1" fill="#f3e8d3" d="M 204.5,128.5 C 205.833,128.5 207.167,128.5 208.5,128.5C 212.428,142.926 221.762,151.759 236.5,155C 251.234,156.232 265.567,154.399 279.5,149.5C 295.592,159.776 312.426,161.11 330,153.5C 337.089,155.023 344.256,156.189 351.5,157C 353.189,160.879 355.022,164.712 357,168.5C 373.151,224.659 381.818,281.992 383,340.5C 337.886,379.628 292.72,418.628 247.5,457.5C 247.489,392.632 236.989,329.632 216,268.5C 197.061,217.399 167.561,173.399 127.5,136.5C 153.211,132.818 178.878,130.151 204.5,128.5 Z"/></g>
<g><path style="opacity:1" fill="#fe9c72" d="M 357.5,262.5 C 363.032,262.028 365.365,264.362 364.5,269.5C 361.962,271.541 359.295,273.375 356.5,275C 328.768,286.726 300.934,298.226 273,309.5C 268.949,308.792 267.282,306.459 268,302.5C 270.291,298.437 273.791,296.604 278.5,297C 297.77,287.869 317.436,279.536 337.5,272C 344.075,268.545 350.741,265.378 357.5,262.5 Z"/></g>
<g><path style="opacity:1" fill="#fe9c73" d="M 360.5,294.5 C 363.785,294.269 366.285,295.603 368,298.5C 368.165,300.678 367.332,302.511 365.5,304C 337.349,317.783 309.015,331.116 280.5,344C 271.172,344.354 269.505,341.021 275.5,334C 297.317,324.257 318.984,314.257 340.5,304C 347.958,302.101 354.625,298.934 360.5,294.5 Z"/></g>
</svg>
